<?xml version="1.0" encoding="UTF-8" standalone="no"?>
<!-- Created with Inkscape (http://www.inkscape.org/) -->

<svg
   width="512"
   height="512"
   viewBox="0 0 135.46666 135.46667"
   version="1.1"
   id="svg1"
   xml:space="preserve"
   xmlns="http://www.w3.org/2000/svg"
   xmlns:svg="http://www.w3.org/2000/svg"><defs
     id="defs1" /><g
     id="layer1"><path
       style="font-size:18.026px;line-height:0em;font-family:Haettenschweiler;-inkscape-font-specification:Haettenschweiler;letter-spacing:0.974376px;word-spacing:0px;text-orientation:upright;fill:#ffffff;fill-opacity:1;stroke-width:1;stroke-linecap:round;stroke-linejoin:round;stroke-miterlimit:12.5;stroke-dashoffset:0.19578;paint-order:stroke fill markers"
       d="m 104.69279,100.71444 h -5.408243 q -0.875624,-0.46407 -0.875624,-2.632245 v -0.0152 l 0.03436,-0.65426 q 0.05154,-1.36177 0.05154,-1.39221 0,-0.55536 -1.682575,-0.55536 v 5.234085 H 91.403924 V 89.78983 h 6.678757 q 2.283479,0 3.966049,0.464071 1.69974,0.464071 1.69974,1.468282 v 1.30852 q 0,1.270479 -3.34797,1.719337 3.36513,0.349953 3.36513,1.803015 l -0.0858,1.19441 q 0,2.617035 1.01296,2.966985 z m -6.198025,-7.151217 v -1.795408 q 0,-0.570575 -1.682565,-0.570575 v 2.944172 q 1.682565,0 1.682565,-0.578189 z"
       id="path293" /><path
       style="font-size:18.026px;line-height:0em;font-family:Haettenschweiler;-inkscape-font-specification:Haettenschweiler;letter-spacing:0.974376px;word-spacing:0px;text-orientation:upright;fill:#ffffff;fill-opacity:1;stroke-width:1;stroke-linecap:round;stroke-linejoin:round;stroke-miterlimit:12.5;stroke-dashoffset:0.19578;paint-order:stroke fill markers"
       d="m 88.576167,100.69922 h -5.356741 l -0.90996,-2.928955 h -2.420837 l -0.909957,2.928955 h -5.356744 l 4.051895,-10.909404 h 6.850449 z m -6.713097,-4.442875 -0.772606,-3.256088 -0.738271,3.256088 z"
       id="path292" /><path
       style="font-size:18.026px;line-height:0em;font-family:Haettenschweiler;-inkscape-font-specification:Haettenschweiler;letter-spacing:0.974376px;word-spacing:0px;text-orientation:upright;fill:#ffffff;fill-opacity:1;stroke-width:1;stroke-linecap:round;stroke-linejoin:round;stroke-miterlimit:12.5;stroke-dashoffset:0.19578;paint-order:stroke fill markers"
       d="M 71.223371,100.69922 H 61.076466 V 89.789819 h 5.408248 v 9.509606 h 4.738657 z"
       id="path291" /><path
       style="font-size:18.026px;line-height:0em;font-family:Haettenschweiler;-inkscape-font-specification:Haettenschweiler;letter-spacing:0.974376px;word-spacing:0px;text-orientation:upright;fill:#ffffff;fill-opacity:1;stroke-width:1;stroke-linecap:round;stroke-linejoin:round;stroke-miterlimit:12.5;stroke-dashoffset:0.19578;paint-order:stroke fill markers"
       d="m 45.646601,98.835345 v -7.021884 q 0,-2.122542 6.215195,-2.122542 6.129351,0 6.129351,2.107321 v 7.021895 q 0,0.95096 -1.716905,1.468275 -1.699736,0.50971 -4.446782,0.50971 -6.180859,0 -6.180859,-1.962775 z m 7.056478,0.11412 v -7.432702 q 0,-0.327134 -0.875619,-0.327134 -0.909961,0 -0.909961,0.327134 v 7.432702 q 0,0.32713 0.909961,0.32713 0.875619,0 0.875619,-0.32713 z"
       id="path290" /><path
       style="font-size:18.026px;line-height:0em;font-family:Haettenschweiler;-inkscape-font-specification:Haettenschweiler;letter-spacing:0.974376px;word-spacing:0px;text-orientation:upright;fill:#ffffff;fill-opacity:1;stroke-width:1;stroke-linecap:round;stroke-linejoin:round;stroke-miterlimit:12.5;stroke-dashoffset:0.19578;paint-order:stroke fill markers"
       d="m 30.319753,96.332415 h 4.927515 v 2.50293 q 0,0.37278 1.012975,0.37278 0.978635,0 0.978635,-0.37278 v -1.29331 q 0,-0.5934 -1.785581,-1.3922 -3.450978,-1.483494 -4.292261,-1.99321 -0.841283,-0.509717 -0.841283,-1.118331 v -1.224833 q 0,-2.122542 6.249533,-2.122542 5.597108,0 5.597108,1.932345 v 1.886707 h -4.927516 v -2.008424 q 0,-0.327133 -0.806946,-0.327133 -0.944296,0 -0.944296,0.631441 l 0.103017,0.707511 q 0,0.608613 1.819922,1.415031 3.382301,1.437848 4.292259,2.008428 0.92713,0.57057 0.92713,1.2933 v 1.39221 q 0,2.175785 -6.266703,2.175785 -6.043503,0 -6.043503,-1.977985 z"
       id="text4" /><path
       id="text1"
       style="font-size:39.6875px;line-height:0em;font-family:Haettenschweiler;-inkscape-font-specification:Haettenschweiler;letter-spacing:1.05833px;word-spacing:0px;text-orientation:upright;fill:#ffffff;stroke-width:1;stroke-linecap:round;stroke-linejoin:round;stroke-miterlimit:12.5;stroke-dashoffset:0.19578;paint-order:stroke fill markers"
       d="m 66.082218,87.702662 -35.711301,-0.0039 V 32.006766 h 32.699139 v 7.18481 H 47.201355 V 54.22142 H 60.98216 l -0.06461,6.763306 -13.716193,-0.0056 v 19.573751 l 18.841484,0.06842 z m 23.869936,-26.85004 -8.823433,0.06451 0.121833,26.781615 h -15.17411 l -0.129223,-26.777586 -5.043126,0.06842 0.04307,-6.771164 5.086201,-0.04562 c 0,-3.961353 -1.175408,-16.457729 2.073413,-19.835832 1.389179,-1.553472 5.485477,-2.330208 12.288894,-2.330208 h 9.617393 v 6.058542 h -2.93865 c -2.600258,0 -5.281772,0.0022 -5.679268,4.08163 -0.339641,1.930687 -0.306444,10.449905 -0.306444,12.055159 l 8.85975,-0.04953 z M 104.4079,87.698748 H 89.776652 l 0.08615,-26.785995 14.452208,-0.09123 z" /><circle
       style="fill:#f0d117;fill-opacity:1;stroke-width:0.99999;stroke-linecap:round;stroke-linejoin:round;stroke-miterlimit:12.5;stroke-dashoffset:0.19578;paint-order:stroke fill markers"
       id="path4"
       cx="96.928238"
       cy="45.773777"
       r="6" /><path
       style="fill:#f0d117;fill-opacity:1;stroke:none;stroke-width:1;stroke-linecap:round;stroke-linejoin:round;stroke-miterlimit:12.5;stroke-dashoffset:0.19578;paint-order:stroke fill markers"
       d="m 47.264273,60.999368 h 9.361855 9.361853 l 4.221339,8.371402 5.948254,11.277836 -19.531446,10e-7 -17.612659,0.09688 z"
       id="path5" /><path
       style="fill:#f0d117;fill-opacity:1;stroke-width:1"
       d="m 93.186323,87.651009 c 0,-0.0022 0.603841,-2.519871 1.34187,-5.592886 0.73803,-3.073014 1.341871,-5.588919 1.341871,-5.590907 0,-0.0022 -0.699049,-0.0044 -1.553446,-0.0044 -1.240344,0 -1.552882,-0.0022 -1.55065,-0.0111 0.0016,-0.0055 0.544273,-3.50435 1.20608,-7.773776 l 1.203287,-7.762589 h 3.476275 3.47627 l -0.0317,0.09175 c -0.086,0.248669 -3.530642,10.304167 -3.530642,10.30643 0,0.0022 1.195816,0.0033 2.657372,0.0055 l 2.65738,0.0022 -5.346975,8.167618 c -2.940839,4.49219 -5.346979,8.165102 -5.346979,8.162026 z"
       id="path7" /></g></svg>
