<?xml version="1.0" encoding="UTF-8" standalone="no"?>
<!-- Created with Inkscape (http://www.inkscape.org/) -->

<svg
   width="512"
   height="512"
   viewBox="0 0 135.46666 135.46667"
   version="1.1"
   id="svg1"
   inkscape:export-filename="EfiSolarDark.png"
   inkscape:export-xdpi="96"
   inkscape:export-ydpi="96"
   inkscape:version="1.3.2 (091e20e, 2023-11-25, custom)"
   sodipodi:docname="EfiSolar.svg"
   xmlns:inkscape="http://www.inkscape.org/namespaces/inkscape"
   xmlns:sodipodi="http://sodipodi.sourceforge.net/DTD/sodipodi-0.dtd"
   xmlns="http://www.w3.org/2000/svg"
   xmlns:svg="http://www.w3.org/2000/svg">
  <sodipodi:namedview
     id="namedview1"
     pagecolor="#ffffff"
     bordercolor="#000000"
     borderopacity="0.25"
     inkscape:showpageshadow="2"
     inkscape:pageopacity="0.0"
     inkscape:pagecheckerboard="0"
     inkscape:deskcolor="#d1d1d1"
     inkscape:document-units="mm"
     showguides="true"
     inkscape:zoom="0.97503396"
     inkscape:cx="283.06706"
     inkscape:cy="247.68368"
     inkscape:window-width="1920"
     inkscape:window-height="991"
     inkscape:window-x="-9"
     inkscape:window-y="-9"
     inkscape:window-maximized="1"
     inkscape:current-layer="layer1" />
  <defs
     id="defs1" />
  <g
     inkscape:label="Layer 1"
     inkscape:groupmode="layer"
     id="layer1">
    <path
       id="text1"
       style="font-size:39.6875px;line-height:0em;font-family:Haettenschweiler;-inkscape-font-specification:Haettenschweiler;letter-spacing:1.05833px;word-spacing:0px;text-orientation:upright;opacity:1;stroke-width:1;stroke-linecap:round;stroke-linejoin:round;stroke-miterlimit:12.5;stroke-dashoffset:0.19578;paint-order:stroke fill markers;fill:#ffffff"
       d="m 66.082218,87.702662 -35.711301,-0.0039 V 32.006766 h 32.699139 v 7.18481 H 47.201355 V 54.22142 H 60.98216 l -0.06461,6.763306 -13.716193,-0.0056 v 19.573751 l 18.841484,0.06842 z m 23.869936,-26.85004 -8.823433,0.06451 0.121833,26.781615 h -15.17411 l -0.129223,-26.777586 -5.043126,0.06842 0.04307,-6.771164 5.086201,-0.04562 c 0,-3.961353 -1.175408,-16.457729 2.073413,-19.835832 1.389179,-1.553472 5.485477,-2.330208 12.288894,-2.330208 h 9.617393 v 6.058542 h -2.93865 c -2.600258,0 -5.281772,0.0022 -5.679268,4.08163 -0.339641,1.930687 -0.306444,10.449905 -0.306444,12.055159 l 8.85975,-0.04953 z M 104.4079,87.698748 H 89.776652 l 0.08615,-26.785995 14.452208,-0.09123 z"
       sodipodi:nodetypes="ccccccccccccccccccccccsccsccccccccc" />
    <ellipse
       style="opacity:1;fill:#ffcc00;stroke-width:0.999997;stroke-linecap:round;stroke-linejoin:round;stroke-miterlimit:12.5;stroke-dashoffset:0.19578;paint-order:stroke fill markers"
       id="path4"
       cx="97.277657"
       cy="46.497845"
       rx="6.3494186"
       ry="6.7240677" />
    <path
       d="m 29.360357,96.332415 h 4.991079 v 2.50293 q 0,0.37278 1.026042,0.37278 0.991259,0 0.991259,-0.37278 v -1.29331 q 0,-0.5934 -1.808614,-1.3922 -3.495495,-1.483494 -4.34763,-1.99321 -0.852136,-0.509717 -0.852136,-1.118331 v -1.224833 q 0,-2.122542 6.330151,-2.122542 5.669309,0 5.669309,1.932345 v 1.886707 h -4.99108 v -2.008424 q 0,-0.327133 -0.817355,-0.327133 -0.956477,0 -0.956477,0.631441 l 0.104346,0.707511 q 0,0.608613 1.843398,1.415031 3.425932,1.437848 4.347629,2.008428 0.939089,0.57057 0.939089,1.2933 v 1.39221 q 0,2.175785 -6.347542,2.175785 -6.121463,0 -6.121463,-1.977985 z m 15.524561,2.50293 v -7.021884 q 0,-2.122542 6.29537,-2.122542 6.208418,0 6.208418,2.107321 v 7.021895 q 0,0.95096 -1.739053,1.468275 -1.721662,0.50971 -4.504144,0.50971 -6.260591,0 -6.260591,-1.962775 z m 7.147505,0.11412 v -7.432702 q 0,-0.327134 -0.886914,-0.327134 -0.921699,0 -0.921699,0.327134 v 7.432702 q 0,0.32713 0.921699,0.32713 0.886914,0 0.886914,-0.32713 z m 18.7592,1.749755 H 60.513825 V 89.789819 h 5.478013 v 9.509606 h 4.799785 z m 17.576643,0 h -5.425842 l -0.921698,-2.928955 h -2.452065 l -0.921696,2.928955 h -5.425844 l 4.104163,-10.909404 h 6.938818 z m -6.799694,-4.442875 -0.782573,-3.256088 -0.747794,3.256088 z m 23.124218,4.458095 h -5.478008 q -0.88692,-0.46407 -0.88692,-2.632245 v -0.0152 l 0.0348,-0.65426 q 0.0522,-1.36177 0.0522,-1.39221 0,-0.55536 -1.70428,-0.55536 v 5.234085 H 91.2325 V 89.78983 h 6.764912 q 2.312938,0 4.017208,0.464071 1.72167,0.464071 1.72167,1.468282 v 1.30852 q 0,1.270479 -3.39116,1.719337 3.40854,0.349953 3.40854,1.803015 l -0.0869,1.19441 q 0,2.617035 1.02603,2.966985 z m -6.277978,-7.151217 v -1.795408 q 0,-0.570575 -1.70427,-0.570575 v 2.944172 q 1.70427,0 1.70427,-0.578189 z"
       id="text4"
       style="font-size:18.026px;line-height:0em;font-family:Haettenschweiler;-inkscape-font-specification:Haettenschweiler;letter-spacing:0.974376px;word-spacing:0px;text-orientation:upright;fill:#ffcc00;stroke-width:0.999998;stroke-linecap:round;stroke-linejoin:round;stroke-miterlimit:12.5;stroke-dashoffset:0.19578;paint-order:stroke fill markers"
       aria-label="SOLAR" />
  </g>
</svg>
